{"asset":{"version":"2.0","generator":"babylon.js glTF exporter for 3dsmax 2 v20200117.6"},"extensionsUsed":["KHR_materials_unlit"],"scene":0,"scenes":[{"nodes":[0,1],"extensions":{}}],"nodes":[{"mesh":0,"translation":[0.0,0.0,0.0],"rotation":[0.0,0.0,0.0,1.0],"scale":[1.0,1.0,1.0],"name":"GLU_014_top3"},{"translation":[0.0,0.0,0.0],"rotation":[0.0,0.0,0.0,1.0],"scale":[1.0,1.0,1.0],"name":"Default light"}],"meshes":[{"primitives":[{"attributes":{"POSITION":1,"NORMAL":2,"TEXCOORD_0":3},"indices":0,"mode":4,"material":0}],"name":"GLU_014_top3"}],"accessors":[{"bufferView":0,"componentType":5125,"count":168468,"type":"SCALAR","name":"accessorIndices"},{"bufferView":1,"componentType":5126,"count":168468,"max":[34.4732971,33.56227,35.5231628],"min":[-38.0339775,-0.258323431,-36.99179],"type":"VEC3","name":"accessorPositions"},{"bufferView":1,"byteOffset":2021616,"componentType":5126,"count":168468,"type":"VEC3","name":"accessorNormals"},{"bufferView":2,"componentType":5126,"count":168468,"type":"VEC2","name":"accessorUVs"}],"bufferViews":[{"buffer":0,"byteLength":673872,"name":"bufferViewScalar"},{"buffer":0,"byteOffset":673872,"byteLength":4043232,"byteStride":12,"name":"bufferViewFloatVec3"},{"buffer":0,"byteOffset":4717104,"byteLength":1347744,"byteStride":8,"name":"bufferViewFloatVec2"}],"buffers":[{"uri":"GLU_014_3_GLTF.bin","byteLength":6064848}],"materials":[{"pbrMetallicRoughness":{"baseColorFactor":[1.0,1.0,1.0,1.0],"baseColorTexture":{"index":0,"texCoord":0},"metallicFactor":0.0,"roughnessFactor":0.450053632},"emissiveTexture":{"index":0,"texCoord":0},"emissiveFactor":[1.0,1.0,1.0],"alphaMode":"OPAQUE","name":"GLU_014_baked","extensions":{"KHR_materials_unlit":{}}}],"textures":[{"sampler":0,"source":0,"name":"GLU_014_baked.jpg"}],"images":[{"uri":"./GLU_014_baked.jpg"}],"samplers":[{"magFilter":9729,"minFilter":9987,"wrapS":10497,"wrapT":10497}]}